<?xml version="1.0" encoding="UTF-8"?>
<svg version="1.1" viewBox="0 0 1052.4 744.09" xmlns="http://www.w3.org/2000/svg">
 <g transform="translate(0 -308.27)">
  <g transform="matrix(.56129 0 0 .56129 627.62 182.54)" fill="none" stroke="#000">
   <path d="m-502.86 1372.4 507.14 2.8571" stroke-width="60"/>
   <path transform="matrix(.6829 0 0 .6829 -239.07 380.47)" d="m-400 1456.6c0 85.999-69.716 155.71-155.71 155.71-85.999 0-155.71-69.716-155.71-155.71 0-85.999 69.716-155.71 155.71-155.71 85.999 0 155.71 69.716 155.71 155.71z" stroke-width="96.257"/>
   <path transform="matrix(.6829 0 0 .6829 493.78 381.9)" d="m-400 1456.6c0 85.999-69.716 155.71-155.71 155.71-85.999 0-155.71-69.716-155.71-155.71 0-85.999 69.716-155.71 155.71-155.71 85.999 0 155.71 69.716 155.71 155.71z" stroke-width="96.257"/>
   <path d="m128.57 1249.5 140-834.29c54.23-93.85 126.46-121.62 247.86-100.7" stroke-width="60"/>
   <path d="m157.58 1091.8-887.92 1.0102c-29.602-3.0486-56.553-21.672-68.69-54.548l-87.883-447.5c-7.4296-31.105 24.235-83.412 64.65-89.904l1088-71.39" stroke-width="60"/>
   <path d="m-628.31 688.71c2.6937 0 5.3875 0 0 0z" stroke-width="1px"/>
   <path d="m50.508 640.22-688.93 46.47" stroke-linecap="round" stroke-width="70"/>
   <path d="m52.299 881.67-690.49 1.9651" stroke-linecap="round" stroke-width="70"/>
  </g>
 </g>
</svg>
